<svg xmlns:svg="http://www.w3.org/2000/svg" xmlns="http://www.w3.org/2000/svg" height="100" width="100" viewBox="0 0 823.75 637.5" xml:space="preserve" version="1.1"><style>.s0{fill:#0a51a1;}.s1{fill:#80c31c;}.s2{fill:#41b7d4;}</style><g transform="matrix(1.25,0,0,-1.25,0,637.5)"><g transform="scale(0.1,0.1)"><path d="m3257.02 4150.59 0-611.39c0-41.41-43.86-51.9-74.16-35.85l3.8 631.11c-28.82 19.15-511.59 218.42-510.16 256.56l-2.57 92.11c0 53.55 161.45 175.16 261.95 141.36l512.5-265.81c32.43-16.05 45.04-25.37 45.04-57.9l0-647.24c0-46.25-101.47-72.83-101.47-10.3l0 616.55c0 16.82-1.62 23.6-11.59 29.59l-477.92 255.68c-63.7 22.21-148.64-47.31-143.77-68.18l475.19-263.42c16.1-11.31 23.16-30.6 23.16-62.87" fill="#000"/><path d="m2960.26 3984.28 0-611.4c0-41.4-33.86-51.89-64.15-35.84l-50.13 31.16c0 0 0.92 582.65 2.34 620.78l-470.78 240-0.36 87.84c0 53.54 161.45 175.16 261.95 141.36l512.5-265.81c32.43-16.05 45.03-25.37 45.03-57.91l0-647.24c0-46.24-101.47-72.83-101.47-10.29l0 616.54c0 16.82-1.62 23.61-11.58 29.6l-477.92 255.68c-63.71 22.21-148.65-47.31-143.77-68.18l475.18-263.42c16.1-11.31 23.16-30.61 23.16-62.87" fill="#0a51a1"/><path d="m2653.51 3817.96 0-611.39c0-41.41-33.87-51.89-64.15-35.85l-485.48 301.84c-28.82 19.15-32.32 27.31-30.89 65.44l-2.57 612.5c0 53.55 161.46 175.16 261.95 141.36l512.5-265.81c32.43-16.05 45.04-25.37 45.04-57.9l0-647.24c0-46.25-101.47-72.83-101.47-10.3l0 616.55c0 16.82-1.62 23.61-11.58 29.59l-477.93 255.68c-63.7 22.21-148.64-47.31-143.77-68.18l475.19-263.42c16.1-11.31 23.16-30.6 23.16-62.87" fill="#80c31c"/><path d="M3609.26 2533.35 6027.03 114.29c52.14-59.5 128.7-97.07 214.03-97.07 157.11 0 342.75 185.64 342.75 342.75 0 78.36-31.24 149.75-82.48 201.19l-2430.1 2430.09-461.97-457.9" fill="#408300"/><path d="m4617.68 3883.04c0-404.35 327.78-732.13 732.13-732.13 404.35 0 732.13 327.78 732.13 732.13 0 404.35-327.78 732.13-732.13 732.13-404.35 0-732.13-327.78-732.13-732.13zm-483.54-0.08c0 671.42 544.28 1215.69 1215.69 1215.69 671.42 0 1215.69-544.27 1215.69-1215.69 0-671.41-544.27-1215.69-1215.69-1215.69-671.41 0-1215.69 544.28-1215.69 1215.69" fill="#41b7d4"/><path d="m571.77 2172.5 0-1577.32 786.67 0c157.11 0 284.47-127.36 284.47-284.47 0-157.11-127.36-284.47-284.47-284.47l-1071.15 0C130.18 26.23 2.82 153.59 2.82 310.71l0 1861.79c0 157.11 127.36 284.48 284.47 284.48 157.11 0 284.47-127.37 284.47-284.48M2434.71 595.18l910.48 0c157.11 0 284.47-127.36 284.47-284.47 0-157.11-127.36-284.47-284.47-284.47l-1194.94 0c-157.12 0-284.48 127.36-284.48 284.47l0 1861.79c0 157.11 127.36 284.48 284.48 284.48l1107.52 0c157.12 0 284.48-127.37 284.48-284.48 0-157.11-127.36-284.47-284.48-284.47l-823.06 0 0-361.72 638.3 0c157.12 0 284.47-127.36 284.47-284.47 0-157.11-127.35-284.47-284.47-284.47l-638.3 0 0-362.19" fill="#80c31c"/><path d="m571.77 4813.54 0-1577.32 786.67 0c157.11 0 284.47-127.36 284.47-284.47 0-157.12-127.36-284.48-284.47-284.48l-1071.15 0c-157.11 0-284.47 127.36-284.47 284.48l0 1861.79c0 157.11 127.36 284.47 284.47 284.47 157.11 0 284.47-127.36 284.47-284.47" fill="#41b7d4"/><path d="m2154.5 3307.86c317.69-317.68 832.75-317.68 1150.44 0 317.69 317.69 317.69 832.75 0.01 1150.44-317.7 317.69-832.75 317.69-1150.45 0-317.68-317.69-317.68-832.75 0-1150.44zm1630.04-29.91 221.49-221.5-460.58-460.58-224.52 224.52c-174.97-97.54-376.54-153.12-591.08-153.12-671.41 0-1215.69 544.28-1215.69 1215.69 0 671.42 544.28 1215.69 1215.69 1215.69 671.42 0 1215.69-544.27 1215.69-1215.69 0-220.26-58.58-426.84-161-605.01" fill="#0a51a1"/><path d="M5284.93 726 4669.8 105.43C4617.66 45.92 4541.11 8.36 4455.77 8.36c-157.11 0-342.75 185.64-342.75 342.75 0 78.35 31.24 149.74 82.48 201.19l634.3 628.83 455.13-455.12zm773.33 1674.48c51.47 51.38 122.97 82.69 201.44 82.69 157.12 0 328.18-171.07 328.18-328.18 0-85.51-37.72-162.21-97.44-214.36l-616.37-621.82-451.48 451.48 635.67 630.19" fill="#80c31c"/></g></g></svg>